# xmcd
#
# Track frame offsets: 
#        150
#        1713
#        9701
#        25821
#        41957
#        54618
#        67174
#        77348
#        100014
#        115699
#        125969
#        136855
#        147397
#        164429
#        178654
#        183037
#        196703
#        213564
#        225925
#        236994
#        249181
#
# Disc length: 3453 seconds
#
# Revision: 0
# Processed by: cddbd v1.5.2PL0 Copyright (c) Steve Scherf et al.
# Submitted via: ExactAudioCopy v0.95b3
#
DISCID=180d7b15
DTITLE=Frank Sinatra  - Ring-a-Ding Ding Outtakes and Masters - Disc 1
DYEAR=1900
DGENRE=
TTITLE0=Ring-a-Ding Ding - alt. 1
TTITLE1=Ring-a-Ding Ding - alt. 2
TTITLE2=Ring-a-Ding Ding - alt. 3
TTITLE3=Ring-a-Ding Ding - alt. 4
TTITLE4=Ring-a-Ding Ding - master
TTITLE5=Let's Fall In Love - alt.
TTITLE6=Let's Fall In Love - master
TTITLE7=In The Still Of The Night - alt.
TTITLE8=In The Still Of The Night - master
TTITLE9=A Foggy Day - alt. 1
TTITLE10=A Foggy Day - alt. 2
TTITLE11=A Foggy Day - master
TTITLE12=Let's Face The Music And Dance - alt. 1
TTITLE13=Let's Face The Music And Dance - alt. 2
TTITLE14=Let's Face The Music And Dance - alt. 3
TTITLE15=Let's Face The Music And Dance - master
TTITLE16=Easy To Love - alt. 1
TTITLE17=Easy To Love - alt. 2
TTITLE18=Easy To Love - master
TTITLE19=A Fine Romance - alt.
TTITLE20=A Fine Romance - master
EXTD=
EXTT0=
EXTT1=
EXTT2=
EXTT3=
EXTT4=
EXTT5=
EXTT6=
EXTT7=
EXTT8=
EXTT9=
EXTT10=
EXTT11=
EXTT12=
EXTT13=
EXTT14=
EXTT15=
EXTT16=
EXTT17=
EXTT18=
EXTT19=
EXTT20=
PLAYORDER=
